<?xml version="1.0" encoding="utf-8"?>
<svg id="Layer_1" data-name="Layer 1" xmlns="http://www.w3.org/2000/svg" viewBox="0 0 1646.71 270.27">
  <defs>
    <style>
      .cls-1 {
        fill: #fff;
        font-family: Inter-ExtraBold, Inter;
        font-size: 192.21px;
        font-variation-settings: 'opsz' 14, 'wght' 800;
        font-weight: 700;
      }

      .cls-2 {
        fill: #eb4646;
      }

      .cls-3 {
        fill: #9b9da0;
        font-family: Inter-Light, Inter;
        font-size: 160px;
        font-variation-settings: 'opsz' 14, 'wght' 300;
        font-weight: 300;
      }

      .cls-4 {
        letter-spacing: -.02em;
      }
    </style>
  </defs>
  <g>
    <path class="cls-2" d="M277.04.07c2.56-.15,5.61-.01,8.94.74,5.28,1.19,7.99,5.16,7.05,10.31-.32,1.76-.82,3.48-1.66,5.08-2.97,5.65-6.43,11-11.04,15.55-5.99,5.91-13.43,9-21.83,10.12-2.9.38-5.82.45-8.75.45-46.78-.02-93.56-.04-140.34-.04-28.78,0-57.55.04-86.33.05-.77,0-1.54,0-2.31,0-2.43-.03-4.33-1.05-5.51-3.09C10.72,31.4,6.21,23.54,1.7,15.68c-.6-1.04-1.01-2.17-1.3-3.32C-1.25,5.8,2.32.96,9.3.42,12.44.17,15.6,0,18.75,0c42.09-.03,84.17-.02,126.26.81,89.88.12,126.4-.12,129.78-.55.11-.01,1.01-.13,2.24-.21Z"/>
    <path class="cls-2" d="M22.24,50.06c.88-.31,1.65-.18,2.4-.18,20.7-.02,41.4-.03,62.09-.04.46,0,.92,0,1.39,0,2.61.04,3.01.39,2.9,2.83-.11,2.31.57,4.4,1.71,6.38,1.8,3.11,3.66,6.19,5.47,9.3,2.5,4.31,5.94,7.76,10.26,10.36,4.63,2.79,9.23,5.65,14.63,6.94,3.54.85,7.13,1.14,10.75,1.14,30.78,0,61.56-.02,92.33-.02,2.54,0,5.08.07,7.58.58,4.45.9,7.38,3.55,7.99,7.32.33,2.04-.14,3.99-.89,5.88-2.08,5.24-5.58,9.51-9.79,13.33-7.72,7.01-16.95,10.35-27.43,10.46-12.69.14-25.39.06-38.08.06-27.62,0-55.25,0-82.87,0-4.46,0-8.93-.03-13.39.07-2.55.05-4.22-.89-5.21-3.2-1.15-2.68-2.75-5.14-4.26-7.64-8.93-14.74-17.7-29.57-26.25-44.51-3.2-5.59-6.45-11.14-9.97-16.55-.48-.74-1.08-1.44-1.36-2.5Z"/>
    <path class="cls-2" d="M71.57,131.58c.84-.33,1.76-.17,2.66-.17,19.46-.01,38.92,0,58.39,0,1.61,0,3.23-.07,4.84-.01,1.82.06,2.31.45,2.21,2.1-.19,3.34.92,6.29,2.58,9.1,2.13,3.61,4.06,7.34,6.74,10.62,6.45,7.92,14.79,12.87,25.07,14.59,2.86.48,5.82.47,8.73.64,1.24.07,2.44.33,3.61.7,5.42,1.72,7.82,6.1,6.24,11.41-1.05,3.52-2.84,6.72-4.72,9.88-5.78,9.72-11.58,19.42-17.36,29.14-4.13,6.95-8.27,13.9-12.35,20.88-1.64,2.81-3.76,5.25-6.01,7.59-2.06,2.13-4.72,1.92-7.33,1.45-2-.36-3.69-1.38-5.07-2.89-2.55-2.8-4.73-5.85-6.64-9.08-15.6-26.36-31.19-52.72-46.78-79.07-3.62-6.12-7.31-12.21-10.89-18.35-1.28-2.19-2.37-4.5-3.51-6.77-.26-.51-.7-1.01-.41-1.74Z"/>
  </g>
  <text class="cls-1" transform="translate(338.37 190.58)" style="white-space: pre;">ERM</text>
  <text class="cls-3" transform="translate(822.28 195.07)" style="white-space: pre;">Reference</text>
</svg>